# xmcd
#
# Track frame offsets:
#	150
#	16906
#	35256
#	57257
#	80946
#	104290
#	125540
#	144675
#	162901
#	185651
#	203534
#	219877
#	232255
#	252872
#
# Disc length: 3766 seconds
#
# Revision: 0
# Processed by: cddbd v1.4PL0 Copyright (c) Steve Scherf et al.
# Submitted via: EasyCDDAExtractor 4.6.9.1
#
DISCID=c40eb40e
DTITLE=Raymond Froggatt - Milestones
DYEAR=2002
DGENRE=Country
TTITLE0=I'm getting old
TTITLE1=Going down to Rio
TTITLE2=Ever so kind
TTITLE3=I wouldn't change it
TTITLE4=Everybody lies a little
TTITLE5=Never cry on Monday
TTITLE6=Now I'm alone
TTITLE7=My heart goes boom
TTITLE8=I wish I could talk to my heart
TTITLE9=Fence round the sun
TTITLE10=As blue as Lucys eyes
TTITLE11=In the gool old fashioned way
TTITLE12=Like you used to
TTITLE13=Beautiful and fair
EXTD=
EXTT0=
EXTT1=
EXTT2=
EXTT3=
EXTT4=
EXTT5=
EXTT6=
EXTT7=
EXTT8=
EXTT9=
EXTT10=
EXTT11=
EXTT12=
EXTT13=
PLAYORDER=
